<svg width="563" height="110" viewBox="0 0 563 110" fill="none" xmlns="http://www.w3.org/2000/svg">
<path d="M10.5552 13.0166C10.5552 11.4948 10.5373 10.1699 10.5015 9.04199C10.4657 7.89616 10.4119 6.91146 10.3403 6.08789C10.2687 5.24642 10.1792 4.54818 10.0718 3.99316C9.98226 3.43815 9.88379 2.97266 9.77637 2.59668V2.48926C10.1344 2.50716 10.5104 2.51611 10.9043 2.51611C11.2445 2.53402 11.6204 2.54297 12.0322 2.54297C12.4619 2.54297 12.9006 2.54297 13.3481 2.54297C13.9927 2.54297 14.861 2.48031 15.9531 2.35498C17.0632 2.22965 18.4865 2.16699 20.2231 2.16699C21.8345 2.16699 23.3205 2.38184 24.6812 2.81152C26.0418 3.22331 27.2145 3.82308 28.1992 4.61084C29.2018 5.3986 29.9806 6.37435 30.5356 7.53809C31.1086 8.68392 31.395 9.99089 31.395 11.459C31.395 12.6943 31.2249 13.8044 30.8848 14.7891C30.5446 15.7559 30.0612 16.6063 29.4346 17.3403C28.8258 18.0565 28.0828 18.6652 27.2056 19.1665C26.3462 19.6499 25.3973 20.0348 24.3589 20.3213C25.8807 20.554 27.2682 20.9479 28.5215 21.5029C29.7747 22.04 30.849 22.7204 31.7441 23.5439C32.6572 24.3675 33.3555 25.3343 33.8389 26.4443C34.3402 27.5365 34.5908 28.7539 34.5908 30.0967C34.5908 33.8743 33.3465 36.7121 30.8579 38.6099C28.3693 40.4897 24.6453 41.4297 19.686 41.4297C19.1489 41.4297 18.5223 41.4028 17.8062 41.3491C17.09 41.3133 16.356 41.2686 15.604 41.2148C14.87 41.1611 14.1449 41.1074 13.4287 41.0537C12.7126 41.0179 12.0859 41 11.5488 41H9.77637V40.8926C9.88379 40.5166 9.98226 40.0511 10.0718 39.4961C10.1792 38.9411 10.2687 38.2518 10.3403 37.4282C10.4119 36.6047 10.4657 35.6289 10.5015 34.501C10.5373 33.3551 10.5552 32.0213 10.5552 30.4995V13.0166ZM20.4111 21.9595C19.1937 21.9595 18.1732 22.0042 17.3496 22.0938C16.526 22.1833 15.8905 22.2728 15.4429 22.3623V30.4995C15.4429 32.5942 15.4787 34.3219 15.5503 35.6826C15.6219 37.0433 15.7204 38.1533 15.8457 39.0127C16.526 39.1022 17.2064 39.1828 17.8867 39.2544C18.5671 39.326 19.1131 39.3618 19.5249 39.3618C22.8729 39.3618 25.3167 38.6188 26.8564 37.1328C28.4141 35.6289 29.1929 33.3283 29.1929 30.231C29.1929 29.0135 29.0049 27.9035 28.6289 26.9009C28.2708 25.8804 27.7248 25.0031 26.9907 24.269C26.2746 23.535 25.3615 22.971 24.2515 22.5771C23.1593 22.1654 21.8792 21.9595 20.4111 21.9595ZM15.4429 19.9453C15.9442 19.999 16.3918 20.0348 16.7856 20.0527C17.1795 20.0527 17.6003 20.0527 18.0479 20.0527C19.2653 20.0527 20.3753 19.8826 21.3779 19.5425C22.3805 19.1844 23.231 18.6562 23.9292 17.958C24.6453 17.2598 25.2004 16.3914 25.5942 15.353C25.9881 14.2967 26.1851 13.0703 26.1851 11.6738C26.1851 10.5101 26.0418 9.45378 25.7554 8.50488C25.4689 7.55599 25.0392 6.75033 24.4663 6.08789C23.9113 5.40755 23.222 4.88835 22.3984 4.53027C21.5749 4.1722 20.6349 3.99316 19.5786 3.99316C18.8983 3.99316 18.2985 4.02002 17.7793 4.07373C17.278 4.12744 16.8483 4.1901 16.4902 4.26172C16.0785 4.33333 15.7293 4.42285 15.4429 4.53027V19.9453ZM40.6602 2.48926C42.8981 2.48926 45.1182 2.48031 47.3203 2.4624C49.5404 2.4445 51.5724 2.4266 53.4165 2.40869C55.2606 2.37288 56.8361 2.32812 58.1431 2.27441C59.45 2.2207 60.3363 2.14909 60.8018 2.05957L59.4858 5.63135C58.895 5.47021 58.2057 5.32699 57.418 5.20166C56.7376 5.09424 55.9051 4.99577 54.9204 4.90625C53.9536 4.79883 52.8346 4.74512 51.5635 4.74512C51.1338 4.74512 50.6146 4.76302 50.0059 4.79883C49.415 4.81673 48.8421 4.84359 48.2871 4.87939C47.6426 4.9152 46.9891 4.95101 46.3267 4.98682V19.6499C48.1707 19.632 49.8358 19.5783 51.3218 19.4888C52.8078 19.3993 54.07 19.3097 55.1084 19.2202C56.3258 19.1128 57.4001 18.9875 58.3311 18.8442L57.4985 22.7383C56.2632 22.5771 55.001 22.425 53.7119 22.2817C52.6019 22.1564 51.3934 22.049 50.0864 21.9595C48.7795 21.8521 47.5262 21.7983 46.3267 21.7983V38.6367C48.4393 38.6367 50.3818 38.5472 52.1543 38.3682C53.9268 38.1891 55.4754 37.9832 56.8003 37.7505C58.34 37.4998 59.7454 37.2044 61.0166 36.8643L60.2378 41.2148C60.0229 41.1969 59.7007 41.179 59.271 41.1611C58.8413 41.1432 58.3579 41.1253 57.8208 41.1074C57.3016 41.0895 56.7466 41.0716 56.1558 41.0537C55.5828 41.0537 55.0368 41.0448 54.5176 41.0269C53.9984 41.0269 53.5329 41.0179 53.1211 41C52.7272 41 52.4408 41 52.2617 41H40.6602V40.8926C40.7676 40.5166 40.866 40.0511 40.9556 39.4961C41.063 38.9411 41.1525 38.2518 41.2241 37.4282C41.2957 36.6047 41.3494 35.6289 41.3853 34.501C41.4211 33.3551 41.439 32.0213 41.439 30.4995V13.0166C41.439 11.4948 41.4211 10.1699 41.3853 9.04199C41.3494 7.89616 41.2957 6.91146 41.2241 6.08789C41.1525 5.24642 41.063 4.54818 40.9556 3.99316C40.866 3.43815 40.7676 2.97266 40.6602 2.59668V2.48926ZM65.7163 40.8926C65.9132 40.6061 66.137 40.1854 66.3877 39.6304C66.6383 39.0575 66.8353 38.3413 66.9785 37.4819C67.1755 36.2287 67.3903 34.8232 67.623 33.2656C67.8737 31.6901 68.1243 30.043 68.375 28.3242C68.6436 26.6055 68.9032 24.8509 69.1538 23.0605C69.4224 21.2523 69.673 19.4798 69.9058 17.7432C70.1564 15.9886 70.3892 14.3057 70.604 12.6943C70.8368 11.0651 71.0426 9.5791 71.2217 8.23633C71.4007 6.89355 71.5439 5.72982 71.6514 4.74512C71.7767 3.74251 71.8662 2.99056 71.9199 2.48926H75.3306L92.2227 34.0713L108.98 2.48926H111.532L115.936 34.3936C116.061 35.3962 116.196 36.2555 116.339 36.9717C116.482 37.6878 116.625 38.3055 116.769 38.8247C116.912 39.326 117.046 39.7467 117.171 40.0869C117.315 40.4092 117.449 40.6777 117.574 40.8926V41H110.807V40.8926C110.896 40.6956 110.977 40.3734 111.048 39.9258C111.138 39.4782 111.183 38.9411 111.183 38.3145C111.183 38.0817 111.174 37.849 111.156 37.6162C111.138 37.3656 111.111 37.097 111.075 36.8105L107.665 11.083L91.8198 40.8926L89.9668 40.6777L74.0146 10.8145C73.388 15.0576 72.842 18.9785 72.3765 22.5771C72.1795 24.1169 71.9826 25.6566 71.7856 27.1963C71.5887 28.7181 71.4097 30.1414 71.2485 31.4663C71.1053 32.7912 70.9889 33.9639 70.8994 34.9844C70.8099 35.987 70.7651 36.73 70.7651 37.2134C70.7651 37.8221 70.783 38.3592 70.8188 38.8247C70.8547 39.2902 70.8905 39.6841 70.9263 40.0063C70.98 40.3823 71.0337 40.7135 71.0874 41H65.7163V40.8926ZM145.799 30.4995C145.799 32.0213 145.817 33.3551 145.853 34.501C145.907 35.6289 145.96 36.6047 146.014 37.4282C146.086 38.2518 146.166 38.9411 146.256 39.4961C146.363 40.0511 146.471 40.5166 146.578 40.8926V41H140.133V40.8926C140.24 40.5166 140.339 40.0511 140.428 39.4961C140.536 38.9411 140.625 38.2518 140.697 37.4282C140.768 36.6047 140.822 35.6289 140.858 34.501C140.894 33.3551 140.912 32.0213 140.912 30.4995V13.0166C140.912 11.4948 140.894 10.1699 140.858 9.04199C140.822 7.89616 140.768 6.91146 140.697 6.08789C140.625 5.24642 140.536 4.54818 140.428 3.99316C140.339 3.43815 140.24 2.97266 140.133 2.59668V2.48926C141.619 2.48926 143.123 2.48926 144.645 2.48926C146.166 2.47135 147.643 2.4624 149.076 2.4624C150.508 2.4445 151.869 2.4266 153.158 2.40869C154.447 2.37288 155.611 2.34603 156.649 2.32812C157.687 2.29232 158.565 2.25651 159.281 2.2207C159.997 2.16699 160.507 2.11328 160.812 2.05957L159.496 5.63135C158.905 5.47021 158.215 5.32699 157.428 5.20166C156.747 5.09424 155.915 4.99577 154.93 4.90625C153.963 4.79883 152.844 4.74512 151.573 4.74512C151.144 4.74512 150.606 4.76302 149.962 4.79883C149.317 4.81673 148.682 4.84359 148.055 4.87939C147.339 4.9152 146.587 4.95101 145.799 4.98682V18.5488C147.643 18.5309 149.335 18.4772 150.875 18.3877C152.415 18.2982 153.74 18.2087 154.85 18.1191C156.139 18.0117 157.302 17.8864 158.341 17.7432L157.535 21.6372C156.192 21.4761 154.832 21.3239 153.453 21.1807C152.271 21.0553 151 20.9479 149.64 20.8584C148.279 20.751 146.999 20.6973 145.799 20.6973V30.4995ZM165.995 40.8926C166.102 40.5166 166.201 40.0511 166.29 39.4961C166.38 38.9411 166.46 38.2518 166.532 37.4282C166.603 36.6047 166.657 35.6289 166.693 34.501C166.729 33.3551 166.747 32.0213 166.747 30.4995V13.0166C166.747 11.4948 166.729 10.1699 166.693 9.04199C166.657 7.89616 166.603 6.91146 166.532 6.08789C166.46 5.24642 166.38 4.54818 166.29 3.99316C166.201 3.43815 166.102 2.97266 165.995 2.59668V2.48926H172.413V2.59668C172.306 2.97266 172.198 3.43815 172.091 3.99316C172.001 4.54818 171.921 5.24642 171.849 6.08789C171.795 6.91146 171.742 7.89616 171.688 9.04199C171.652 10.1699 171.634 11.4948 171.634 13.0166V30.4995C171.634 32.0213 171.652 33.3551 171.688 34.501C171.742 35.6289 171.795 36.6047 171.849 37.4282C171.921 38.2518 172.001 38.9411 172.091 39.4961C172.198 40.0511 172.306 40.5166 172.413 40.8926V41H165.995V40.8926ZM186.029 38.6367C188.141 38.6367 190.084 38.5472 191.856 38.3682C193.629 38.1891 195.178 37.9832 196.502 37.7505C198.042 37.4998 199.448 37.2044 200.719 36.8643L199.94 41.2148C199.725 41.1969 199.403 41.179 198.973 41.1611C198.543 41.1432 198.06 41.1253 197.523 41.1074C197.004 41.0895 196.449 41.0716 195.858 41.0537C195.285 41.0537 194.739 41.0448 194.22 41.0269C193.701 41.0269 193.235 41.0179 192.823 41C192.429 41 192.143 41 191.964 41H180.362V40.8926C180.47 40.5166 180.568 40.0511 180.658 39.4961C180.765 38.9411 180.855 38.2518 180.926 37.4282C180.998 36.6047 181.052 35.6289 181.087 34.501C181.123 33.3551 181.141 32.0213 181.141 30.4995V13.0166C181.141 11.4948 181.123 10.1699 181.087 9.04199C181.052 7.89616 180.998 6.91146 180.926 6.08789C180.855 5.24642 180.765 4.54818 180.658 3.99316C180.568 3.43815 180.47 2.97266 180.362 2.59668V2.48926H186.808V2.59668C186.7 2.97266 186.593 3.43815 186.485 3.99316C186.396 4.54818 186.315 5.24642 186.244 6.08789C186.19 6.91146 186.136 7.89616 186.083 9.04199C186.047 10.1699 186.029 11.4948 186.029 13.0166V38.6367ZM205.66 40.8926C205.768 40.5166 205.866 40.0511 205.956 39.4961C206.063 38.9411 206.153 38.2518 206.224 37.4282C206.296 36.6047 206.349 35.6289 206.385 34.501C206.421 33.3551 206.439 32.0213 206.439 30.4995V13.0166C206.439 11.4948 206.421 10.1699 206.385 9.04199C206.349 7.89616 206.296 6.91146 206.224 6.08789C206.153 5.24642 206.063 4.54818 205.956 3.99316C205.866 3.43815 205.768 2.97266 205.66 2.59668V2.48926H212.105V2.59668C211.998 2.97266 211.891 3.43815 211.783 3.99316C211.694 4.54818 211.613 5.24642 211.542 6.08789C211.488 6.91146 211.434 7.89616 211.38 9.04199C211.345 10.1699 211.327 11.4948 211.327 13.0166V19.0054L227.01 6.19531C228.765 4.76302 229.642 3.52767 229.642 2.48926H237.188V2.59668C236.132 2.84733 235.058 3.33073 233.966 4.04688C232.892 4.74512 231.746 5.60449 230.528 6.625L216.671 18.2266L233.348 36.542C234.046 37.2581 234.637 37.8579 235.121 38.3413C235.622 38.8068 236.061 39.2007 236.437 39.5229C236.812 39.8273 237.153 40.0869 237.457 40.3018C237.779 40.4987 238.111 40.6956 238.451 40.8926V41H230.582C230.51 40.8389 230.385 40.633 230.206 40.3823C230.045 40.1317 229.848 39.8721 229.615 39.6035C229.4 39.335 229.159 39.0575 228.89 38.771C228.639 38.4845 228.398 38.216 228.165 37.9653L211.327 19.4888V30.4995C211.327 32.0213 211.345 33.3551 211.38 34.501C211.434 35.6289 211.488 36.6047 211.542 37.4282C211.613 38.2518 211.694 38.9411 211.783 39.4961C211.891 40.0511 211.998 40.5166 212.105 40.8926V41H205.66V40.8926ZM256.041 1.84473C259.031 1.84473 261.788 2.33708 264.312 3.32178C266.855 4.28857 269.048 5.6582 270.892 7.43066C272.736 9.18522 274.177 11.2979 275.216 13.7686C276.254 16.2393 276.773 18.9696 276.773 21.9595C276.773 23.6603 276.576 25.3343 276.183 26.9814C275.789 28.6286 275.207 30.1862 274.437 31.6543C273.685 33.1224 272.754 34.4831 271.644 35.7363C270.534 36.9717 269.263 38.0459 267.831 38.959C266.416 39.8542 264.85 40.5524 263.131 41.0537C261.412 41.5729 259.559 41.8325 257.572 41.8325C254.582 41.8325 251.816 41.3581 249.273 40.4092C246.749 39.4424 244.565 38.0817 242.721 36.3271C240.877 34.5726 239.435 32.4689 238.397 30.0161C237.359 27.5454 236.839 24.8062 236.839 21.7983C236.839 20.0975 237.036 18.4235 237.43 16.7764C237.824 15.1292 238.397 13.5627 239.149 12.0767C239.919 10.5907 240.85 9.22998 241.942 7.99463C243.052 6.74137 244.314 5.6582 245.729 4.74512C247.161 3.83203 248.736 3.12484 250.455 2.62354C252.192 2.10433 254.054 1.84473 256.041 1.84473ZM257.572 39.4155C259.559 39.4155 261.376 39.0575 263.023 38.3413C264.671 37.6252 266.085 36.5868 267.267 35.2261C268.466 33.8654 269.397 32.2093 270.06 30.2578C270.722 28.2884 271.053 26.0594 271.053 23.5708C271.053 20.8136 270.731 18.2624 270.086 15.917C269.46 13.5537 268.52 11.5127 267.267 9.79395C266.013 8.05729 264.447 6.70557 262.567 5.73877C260.705 4.75407 258.53 4.26172 256.041 4.26172C254.054 4.26172 252.236 4.61979 250.589 5.33594C248.942 6.03418 247.519 7.05469 246.319 8.39746C245.138 9.74023 244.216 11.3874 243.553 13.3389C242.891 15.2904 242.56 17.5104 242.56 19.999C242.56 22.7383 242.873 25.2985 243.5 27.6797C244.126 30.043 245.066 32.0929 246.319 33.8296C247.573 35.5662 249.139 36.9359 251.019 37.9385C252.899 38.9232 255.083 39.4155 257.572 39.4155ZM280.936 40.8926C281.133 40.6061 281.357 40.1854 281.607 39.6304C281.858 39.0575 282.055 38.3413 282.198 37.4819C282.395 36.2287 282.61 34.8232 282.843 33.2656C283.093 31.6901 283.344 30.043 283.595 28.3242C283.863 26.6055 284.123 24.8509 284.374 23.0605C284.642 21.2523 284.893 19.4798 285.125 17.7432C285.376 15.9886 285.609 14.3057 285.824 12.6943C286.056 11.0651 286.262 9.5791 286.441 8.23633C286.62 6.89355 286.764 5.72982 286.871 4.74512C286.996 3.74251 287.086 2.99056 287.14 2.48926H290.55L307.442 34.0713L324.2 2.48926H326.751L331.156 34.3936C331.281 35.3962 331.415 36.2555 331.559 36.9717C331.702 37.6878 331.845 38.3055 331.988 38.8247C332.132 39.326 332.266 39.7467 332.391 40.0869C332.534 40.4092 332.669 40.6777 332.794 40.8926V41H326.026V40.8926C326.116 40.6956 326.196 40.3734 326.268 39.9258C326.358 39.4782 326.402 38.9411 326.402 38.3145C326.402 38.0817 326.393 37.849 326.375 37.6162C326.358 37.3656 326.331 37.097 326.295 36.8105L322.884 11.083L307.04 40.8926L305.187 40.6777L289.234 10.8145C288.608 15.0576 288.062 18.9785 287.596 22.5771C287.399 24.1169 287.202 25.6566 287.005 27.1963C286.808 28.7181 286.629 30.1414 286.468 31.4663C286.325 32.7912 286.209 33.9639 286.119 34.9844C286.03 35.987 285.985 36.73 285.985 37.2134C285.985 37.8221 286.003 38.3592 286.039 38.8247C286.074 39.2902 286.11 39.6841 286.146 40.0063C286.2 40.3823 286.253 40.7135 286.307 41H280.936V40.8926ZM382.906 13.0166C382.906 11.4948 382.888 10.1699 382.853 9.04199C382.817 7.89616 382.763 6.91146 382.691 6.08789C382.62 5.24642 382.539 4.54818 382.45 3.99316C382.36 3.43815 382.262 2.97266 382.154 2.59668V2.48926H386.935V2.59668C386.827 2.97266 386.72 3.43815 386.612 3.99316C386.523 4.54818 386.442 5.24642 386.371 6.08789C386.317 6.91146 386.263 7.89616 386.209 9.04199C386.174 10.1699 386.156 11.4948 386.156 13.0166V27.5186C386.156 30.0788 385.789 32.263 385.055 34.0713C384.321 35.8796 383.3 37.3656 381.993 38.5293C380.686 39.6751 379.12 40.5076 377.293 41.0269C375.467 41.564 373.471 41.8325 371.305 41.8325C369.138 41.8325 367.115 41.5819 365.235 41.0806C363.373 40.5793 361.744 39.7736 360.348 38.6636C358.969 37.5356 357.886 36.0854 357.098 34.313C356.31 32.5226 355.917 30.3473 355.917 27.7871V13.0166C355.917 11.4948 355.899 10.1699 355.863 9.04199C355.827 7.89616 355.773 6.91146 355.702 6.08789C355.63 5.24642 355.541 4.54818 355.433 3.99316C355.344 3.43815 355.245 2.97266 355.138 2.59668V2.48926H361.583V2.59668C361.476 2.97266 361.368 3.43815 361.261 3.99316C361.171 4.54818 361.091 5.24642 361.019 6.08789C360.947 6.91146 360.894 7.89616 360.858 9.04199C360.822 10.1699 360.804 11.4948 360.804 13.0166V28.0825C360.804 30.2131 361.118 31.9766 361.744 33.373C362.389 34.7516 363.23 35.8527 364.269 36.6763C365.307 37.4819 366.489 38.0459 367.813 38.3682C369.138 38.6904 370.49 38.8516 371.869 38.8516C373.247 38.8516 374.599 38.6904 375.924 38.3682C377.249 38.0459 378.421 37.4819 379.442 36.6763C380.48 35.8527 381.313 34.7516 381.939 33.373C382.584 31.9766 382.906 30.2131 382.906 28.0825V13.0166ZM395.179 13.0166C395.179 11.4948 395.161 10.1699 395.125 9.04199C395.09 7.89616 395.036 6.91146 394.964 6.08789C394.893 5.24642 394.803 4.54818 394.696 3.99316C394.606 3.43815 394.508 2.97266 394.4 2.59668V2.48926C394.758 2.50716 395.134 2.51611 395.528 2.51611C395.868 2.53402 396.244 2.54297 396.656 2.54297C397.086 2.54297 397.525 2.54297 397.972 2.54297C398.617 2.54297 399.485 2.48031 400.577 2.35498C401.687 2.22965 403.111 2.16699 404.847 2.16699C406.458 2.16699 407.944 2.38184 409.305 2.81152C410.666 3.22331 411.839 3.82308 412.823 4.61084C413.826 5.3986 414.605 6.37435 415.16 7.53809C415.733 8.68392 416.019 9.99089 416.019 11.459C416.019 12.6943 415.849 13.8044 415.509 14.7891C415.169 15.7559 414.685 16.6063 414.059 17.3403C413.45 18.0565 412.707 18.6652 411.83 19.1665C410.97 19.6499 410.021 20.0348 408.983 20.3213C410.505 20.554 411.892 20.9479 413.146 21.5029C414.399 22.04 415.473 22.7204 416.368 23.5439C417.281 24.3675 417.979 25.3343 418.463 26.4443C418.964 27.5365 419.215 28.7539 419.215 30.0967C419.215 33.8743 417.971 36.7121 415.482 38.6099C412.993 40.4897 409.269 41.4297 404.31 41.4297C403.773 41.4297 403.146 41.4028 402.43 41.3491C401.714 41.3133 400.98 41.2686 400.228 41.2148C399.494 41.1611 398.769 41.1074 398.053 41.0537C397.337 41.0179 396.71 41 396.173 41H394.4V40.8926C394.508 40.5166 394.606 40.0511 394.696 39.4961C394.803 38.9411 394.893 38.2518 394.964 37.4282C395.036 36.6047 395.09 35.6289 395.125 34.501C395.161 33.3551 395.179 32.0213 395.179 30.4995V13.0166ZM405.035 21.9595C403.818 21.9595 402.797 22.0042 401.974 22.0938C401.15 22.1833 400.514 22.2728 400.067 22.3623V30.4995C400.067 32.5942 400.103 34.3219 400.174 35.6826C400.246 37.0433 400.344 38.1533 400.47 39.0127C401.15 39.1022 401.83 39.1828 402.511 39.2544C403.191 39.326 403.737 39.3618 404.149 39.3618C407.497 39.3618 409.941 38.6188 411.48 37.1328C413.038 35.6289 413.817 33.3283 413.817 30.231C413.817 29.0135 413.629 27.9035 413.253 26.9009C412.895 25.8804 412.349 25.0031 411.615 24.269C410.899 23.535 409.986 22.971 408.875 22.5771C407.783 22.1654 406.503 21.9595 405.035 21.9595ZM400.067 19.9453C400.568 19.999 401.016 20.0348 401.41 20.0527C401.804 20.0527 402.224 20.0527 402.672 20.0527C403.889 20.0527 404.999 19.8826 406.002 19.5425C407.005 19.1844 407.855 18.6562 408.553 17.958C409.269 17.2598 409.824 16.3914 410.218 15.353C410.612 14.2967 410.809 13.0703 410.809 11.6738C410.809 10.5101 410.666 9.45378 410.379 8.50488C410.093 7.55599 409.663 6.75033 409.09 6.08789C408.535 5.40755 407.846 4.88835 407.022 4.53027C406.199 4.1722 405.259 3.99316 404.203 3.99316C403.522 3.99316 402.923 4.02002 402.403 4.07373C401.902 4.12744 401.472 4.1901 401.114 4.26172C400.702 4.33333 400.353 4.42285 400.067 4.53027V19.9453ZM442.123 40.4629C442.391 40.1227 442.812 39.6662 443.385 39.0933C443.958 38.5024 444.62 37.8132 445.372 37.0254C446.124 36.2197 446.93 35.3245 447.789 34.3398C448.648 33.3551 449.508 32.2899 450.367 31.144C451.227 29.9982 452.05 28.7808 452.838 27.4917C453.644 26.1847 454.351 24.8241 454.959 23.4097C455.568 21.9953 456.052 20.5272 456.41 19.0054C456.786 17.4836 456.974 15.9259 456.974 14.3325C456.974 12.6317 456.768 11.1636 456.356 9.92822C455.962 8.67497 455.416 7.64551 454.718 6.83984C454.02 6.01628 453.196 5.40755 452.247 5.01367C451.316 4.61979 450.305 4.42285 449.212 4.42285C447.852 4.42285 446.616 4.6556 445.506 5.12109C444.414 5.56868 443.456 6.09684 442.633 6.70557C441.827 7.31429 441.165 7.92301 440.646 8.53174C440.144 9.14046 439.804 9.60596 439.625 9.92822L439.249 9.76709L441.075 4.31543C442.024 3.88574 442.91 3.51872 443.734 3.21436C444.575 2.89209 445.417 2.63249 446.258 2.43555C447.118 2.23861 447.995 2.09538 448.89 2.00586C449.803 1.89844 450.806 1.84473 451.898 1.84473C452.632 1.84473 453.411 1.92529 454.234 2.08643C455.058 2.24756 455.873 2.50716 456.678 2.86523C457.484 3.22331 458.245 3.6888 458.961 4.26172C459.695 4.81673 460.34 5.50602 460.895 6.32959C461.467 7.13525 461.915 8.0752 462.237 9.14941C462.577 10.2236 462.748 11.45 462.748 12.8286C462.748 14.2967 462.524 15.7738 462.076 17.2598C461.629 18.7279 461.038 20.1781 460.304 21.6104C459.57 23.0247 458.728 24.4123 457.779 25.7729C456.83 27.1336 455.855 28.4316 454.852 29.667C453.849 30.9023 452.856 32.0661 451.871 33.1582C450.886 34.2324 450 35.2171 449.212 36.1123H459.552C460.214 36.1123 460.859 36.1034 461.485 36.0854C462.13 36.0496 462.721 36.0049 463.258 35.9512C463.795 35.8796 464.26 35.79 464.654 35.6826C465.066 35.5752 465.379 35.4409 465.594 35.2798H465.702V41H442.123V40.4629ZM473.597 21.9595C473.597 23.4276 473.785 24.842 474.161 26.2026C474.537 27.5633 475.056 28.8434 475.719 30.043C476.399 31.2246 477.214 32.3078 478.163 33.2925C479.129 34.2772 480.195 35.1187 481.358 35.8169C482.54 36.5151 483.802 37.0612 485.145 37.4551C486.488 37.8311 487.893 38.019 489.361 38.019C490.829 38.019 492.235 37.8311 493.578 37.4551C494.938 37.0612 496.201 36.5151 497.364 35.8169C498.546 35.1187 499.611 34.2772 500.56 33.2925C501.509 32.3078 502.324 31.2246 503.004 30.043C503.684 28.8434 504.212 27.5633 504.588 26.2026C504.964 24.842 505.152 23.4276 505.152 21.9595C505.152 19.7573 504.741 17.6895 503.917 15.7559C503.093 13.8044 501.965 12.1035 500.533 10.6533C499.119 9.18522 497.454 8.03044 495.538 7.18896C493.622 6.32959 491.563 5.8999 489.361 5.8999C487.159 5.8999 485.1 6.32959 483.185 7.18896C481.269 8.03044 479.595 9.18522 478.163 10.6533C476.748 12.1035 475.629 13.8044 474.806 15.7559C474 17.6895 473.597 19.7573 473.597 21.9595ZM469.408 21.8521C469.408 20.0259 469.64 18.2624 470.106 16.5615C470.589 14.8607 471.261 13.2762 472.12 11.8081C472.997 10.3221 474.045 8.97038 475.262 7.75293C476.48 6.53548 477.822 5.49707 479.291 4.6377C480.777 3.76042 482.37 3.08903 484.071 2.62354C485.772 2.14014 487.535 1.89844 489.361 1.89844C491.188 1.89844 492.951 2.14014 494.652 2.62354C496.353 3.08903 497.946 3.76042 499.432 4.6377C500.918 5.49707 502.27 6.53548 503.487 7.75293C504.705 8.97038 505.743 10.3221 506.603 11.8081C507.48 13.2762 508.151 14.8607 508.617 16.5615C509.1 18.2624 509.342 20.0259 509.342 21.8521C509.342 23.6961 509.1 25.4686 508.617 27.1694C508.151 28.8524 507.48 30.4368 506.603 31.9229C505.743 33.4089 504.705 34.7606 503.487 35.978C502.27 37.1955 500.918 38.2428 499.432 39.1201C497.946 39.9795 496.353 40.6419 494.652 41.1074C492.951 41.5908 491.188 41.8325 489.361 41.8325C487.535 41.8325 485.772 41.5908 484.071 41.1074C482.37 40.6419 480.777 39.9795 479.291 39.1201C477.822 38.2428 476.48 37.1955 475.262 35.978C474.045 34.7606 472.997 33.4089 472.12 31.9229C471.261 30.4368 470.589 28.8524 470.106 27.1694C469.64 25.4686 469.408 23.6961 469.408 21.8521ZM515.76 40.4629C516.029 40.1227 516.45 39.6662 517.022 39.0933C517.595 38.5024 518.258 37.8132 519.01 37.0254C519.762 36.2197 520.567 35.3245 521.427 34.3398C522.286 33.3551 523.146 32.2899 524.005 31.144C524.864 29.9982 525.688 28.7808 526.476 27.4917C527.281 26.1847 527.988 24.8241 528.597 23.4097C529.206 21.9953 529.689 20.5272 530.047 19.0054C530.423 17.4836 530.611 15.9259 530.611 14.3325C530.611 12.6317 530.405 11.1636 529.994 9.92822C529.6 8.67497 529.054 7.64551 528.355 6.83984C527.657 6.01628 526.834 5.40755 525.885 5.01367C524.954 4.61979 523.942 4.42285 522.85 4.42285C521.489 4.42285 520.254 4.6556 519.144 5.12109C518.052 5.56868 517.094 6.09684 516.271 6.70557C515.465 7.31429 514.802 7.92301 514.283 8.53174C513.782 9.14046 513.442 9.60596 513.263 9.92822L512.887 9.76709L514.713 4.31543C515.662 3.88574 516.548 3.51872 517.372 3.21436C518.213 2.89209 519.055 2.63249 519.896 2.43555C520.755 2.23861 521.633 2.09538 522.528 2.00586C523.441 1.89844 524.444 1.84473 525.536 1.84473C526.27 1.84473 527.049 1.92529 527.872 2.08643C528.696 2.24756 529.51 2.50716 530.316 2.86523C531.122 3.22331 531.882 3.6888 532.599 4.26172C533.333 4.81673 533.977 5.50602 534.532 6.32959C535.105 7.13525 535.553 8.0752 535.875 9.14941C536.215 10.2236 536.385 11.45 536.385 12.8286C536.385 14.2967 536.161 15.7738 535.714 17.2598C535.266 18.7279 534.675 20.1781 533.941 21.6104C533.207 23.0247 532.366 24.4123 531.417 25.7729C530.468 27.1336 529.492 28.4316 528.49 29.667C527.487 30.9023 526.493 32.0661 525.509 33.1582C524.524 34.2324 523.638 35.2171 522.85 36.1123H533.189C533.852 36.1123 534.496 36.1034 535.123 36.0854C535.768 36.0496 536.358 36.0049 536.896 35.9512C537.433 35.8796 537.898 35.79 538.292 35.6826C538.704 35.5752 539.017 35.4409 539.232 35.2798H539.339V41H515.76V40.4629ZM545.838 40.8926C545.946 40.5166 546.044 40.0511 546.134 39.4961C546.241 38.9411 546.331 38.2518 546.402 37.4282C546.474 36.6047 546.528 35.6289 546.563 34.501C546.599 33.3551 546.617 32.0213 546.617 30.4995V13.0166C546.617 11.4948 546.51 10.2863 546.295 9.39111C546.08 8.49593 545.82 7.80664 545.516 7.32324C545.23 6.83984 544.925 6.49072 544.603 6.27588C544.299 6.06104 544.039 5.8641 543.824 5.68506V5.57764L552.069 2.48926V2.59668C551.961 2.97266 551.854 3.43815 551.747 3.99316C551.657 4.54818 551.576 5.24642 551.505 6.08789C551.433 6.91146 551.38 7.89616 551.344 9.04199C551.308 10.1699 551.29 11.4948 551.29 13.0166V30.4995C551.29 32.0213 551.308 33.3551 551.344 34.501C551.38 35.6289 551.433 36.6047 551.505 37.4282C551.576 38.2518 551.657 38.9411 551.747 39.4961C551.854 40.0511 551.961 40.5166 552.069 40.8926V41H545.838V40.8926Z" fill="#E5DDC8"/>
<path d="M95.6611 84.1899V81.7461H107.214V84.1899H95.6611ZM111.059 91.9316C111.127 91.6924 111.19 91.3962 111.247 91.043C111.315 90.6898 111.372 90.2511 111.418 89.7271C111.464 89.203 111.498 88.582 111.521 87.8643C111.543 87.1351 111.555 86.2863 111.555 85.3179V74.1924C111.555 73.224 111.543 72.3809 111.521 71.6631C111.498 70.9339 111.464 70.3073 111.418 69.7832C111.372 69.2477 111.315 68.8034 111.247 68.4502C111.19 68.097 111.127 67.8008 111.059 67.5615V67.4932H115.161V67.5615C115.092 67.8008 115.024 68.097 114.956 68.4502C114.899 68.8034 114.847 69.2477 114.802 69.7832C114.768 70.3073 114.733 70.9339 114.699 71.6631C114.676 72.3809 114.665 73.224 114.665 74.1924V78.0034L124.646 69.8516C125.762 68.9401 126.32 68.154 126.32 67.4932H131.123V67.5615C130.45 67.721 129.767 68.0286 129.072 68.4844C128.388 68.9287 127.659 69.4756 126.884 70.125L118.066 77.5078L128.679 89.1631C129.123 89.6188 129.499 90.0005 129.807 90.3081C130.126 90.6043 130.405 90.855 130.644 91.0601C130.883 91.2537 131.1 91.4189 131.293 91.5557C131.499 91.681 131.709 91.8063 131.926 91.9316V92H126.918C126.873 91.8975 126.793 91.7664 126.679 91.6069C126.577 91.4474 126.451 91.2822 126.303 91.1113C126.167 90.9404 126.013 90.7638 125.842 90.5815C125.682 90.3993 125.528 90.2284 125.38 90.0688L114.665 78.311V85.3179C114.665 86.2863 114.676 87.1351 114.699 87.8643C114.733 88.582 114.768 89.203 114.802 89.7271C114.847 90.2511 114.899 90.6898 114.956 91.043C115.024 91.3962 115.092 91.6924 115.161 91.9316V92H111.059V91.9316ZM132.507 86.9585C132.507 86.0584 132.689 85.278 133.054 84.6172C133.43 83.9564 133.925 83.3924 134.541 82.9253C135.156 82.4582 135.856 82.0822 136.643 81.7974C137.429 81.5011 138.243 81.2733 139.086 81.1138C139.93 80.9429 140.761 80.8289 141.582 80.772C142.402 80.7036 143.154 80.6637 143.837 80.6523V79.7808C143.837 79.0288 143.741 78.3794 143.547 77.8325C143.353 77.2856 143.08 76.8356 142.727 76.4824C142.373 76.1178 141.946 75.8501 141.445 75.6792C140.955 75.4969 140.414 75.4058 139.821 75.4058C139.411 75.4058 139.007 75.4399 138.608 75.5083C138.209 75.5767 137.793 75.6906 137.36 75.8501C136.939 76.0096 136.489 76.2261 136.01 76.4995C135.543 76.7729 135.036 77.1204 134.489 77.542L134.318 77.4395L135.48 75.0298C135.856 74.8589 136.227 74.7222 136.591 74.6196C136.956 74.5057 137.326 74.4146 137.702 74.3462C138.078 74.2778 138.46 74.2323 138.847 74.2095C139.246 74.1753 139.662 74.1582 140.095 74.1582C141.291 74.1582 142.311 74.3063 143.154 74.6025C144.008 74.8874 144.703 75.2861 145.239 75.7988C145.786 76.3001 146.184 76.8926 146.435 77.5762C146.686 78.2484 146.811 78.9718 146.811 79.7466V85.3179C146.811 86.2863 146.822 87.1351 146.845 87.8643C146.879 88.582 146.914 89.203 146.948 89.7271C146.993 90.2511 147.045 90.6898 147.102 91.043C147.17 91.3962 147.238 91.6924 147.307 91.9316V92H143.53V91.9316C143.587 91.7493 143.627 91.5443 143.649 91.3164C143.684 91.0885 143.712 90.8151 143.735 90.4961C143.496 90.7012 143.211 90.9119 142.88 91.1284C142.561 91.3449 142.191 91.5443 141.77 91.7266C141.359 91.8975 140.898 92.0342 140.385 92.1367C139.884 92.2507 139.331 92.3076 138.728 92.3076C136.745 92.3076 135.213 91.8462 134.13 90.9233C133.048 89.9891 132.507 88.6675 132.507 86.9585ZM143.837 81.9854C142.801 81.9967 141.804 82.0594 140.847 82.1733C139.89 82.2759 139.041 82.498 138.3 82.8398C137.571 83.1816 136.984 83.6715 136.54 84.3096C136.107 84.9362 135.891 85.7736 135.891 86.8218C135.891 88.1662 136.227 89.1916 136.899 89.8979C137.571 90.6043 138.5 90.9575 139.685 90.9575C140.231 90.9575 140.727 90.8835 141.171 90.7354C141.627 90.5758 142.026 90.3822 142.368 90.1543C142.721 89.915 143.017 89.6587 143.256 89.3853C143.496 89.1004 143.678 88.827 143.803 88.5649C143.826 88.132 143.837 87.6535 143.837 87.1294C143.837 86.5939 143.837 85.9901 143.837 85.3179V81.9854ZM154.963 75.3716C155.681 74.9842 156.45 74.6937 157.27 74.5C158.09 74.2949 158.928 74.1924 159.782 74.1924C161.047 74.1924 162.215 74.4089 163.286 74.8418C164.368 75.2633 165.302 75.8672 166.088 76.6533C166.875 77.4395 167.49 78.3965 167.934 79.5244C168.378 80.6523 168.601 81.917 168.601 83.3184C168.601 84.4919 168.396 85.6198 167.985 86.7021C167.587 87.7845 166.983 88.7415 166.174 89.5732C165.376 90.4049 164.379 91.0715 163.183 91.5728C161.998 92.0627 160.62 92.3076 159.047 92.3076C158.865 92.3076 158.62 92.3019 158.312 92.2905C158.016 92.2791 157.686 92.2563 157.321 92.2222C156.957 92.188 156.569 92.1424 156.159 92.0854C155.749 92.0285 155.35 91.9544 154.963 91.8633C154.416 91.738 153.863 91.6012 153.305 91.4531C152.758 91.2936 152.234 91.117 151.733 90.9233C151.778 90.7524 151.818 90.4676 151.853 90.0688C151.887 89.6587 151.91 89.2201 151.921 88.7529C151.944 88.2858 151.961 87.8301 151.972 87.3857C151.984 86.93 151.989 86.5654 151.989 86.292V73.1328C151.989 72.1644 151.972 71.3213 151.938 70.6035C151.915 69.8743 151.881 69.2477 151.835 68.7236C151.801 68.1995 151.75 67.7609 151.682 67.4077C151.625 67.0545 151.562 66.7583 151.494 66.519V66.4507H155.441V66.519C155.373 66.7583 155.31 67.0545 155.253 67.4077C155.196 67.7609 155.145 68.1995 155.1 68.7236C155.054 69.2477 155.02 69.8743 154.997 70.6035C154.974 71.3213 154.963 72.1644 154.963 73.1328V75.3716ZM154.963 86.0186C154.963 86.9414 154.969 87.7048 154.98 88.3086C155.003 88.9124 155.031 89.3966 155.065 89.7612C155.544 90.1258 156.193 90.4334 157.014 90.6841C157.834 90.9347 158.734 91.0601 159.714 91.0601C160.523 91.0601 161.263 90.9006 161.936 90.5815C162.608 90.2625 163.183 89.8011 163.662 89.1973C164.14 88.5934 164.51 87.8586 164.772 86.9927C165.046 86.1268 165.183 85.147 165.183 84.0532C165.183 82.8228 165.069 81.6834 164.841 80.6353C164.613 79.5757 164.26 78.6642 163.781 77.9009C163.303 77.1261 162.693 76.5223 161.953 76.0894C161.212 75.6564 160.329 75.4399 159.304 75.4399C158.438 75.4399 157.629 75.6165 156.877 75.9697C156.125 76.3229 155.487 76.8356 154.963 77.5078V86.0186ZM172.531 81.1821C172.531 80.2137 172.514 79.3706 172.48 78.6528C172.457 77.9237 172.423 77.297 172.377 76.7729C172.343 76.2489 172.292 75.8102 172.224 75.457C172.167 75.1038 172.104 74.8076 172.036 74.5684V74.5H175.983V74.5684C175.915 74.8076 175.852 75.1038 175.795 75.457C175.738 75.8102 175.687 76.2489 175.642 76.7729C175.596 77.297 175.562 77.9237 175.539 78.6528C175.516 79.3706 175.505 80.2137 175.505 81.1821V85.3179C175.505 86.2863 175.516 87.1351 175.539 87.8643C175.562 88.582 175.596 89.203 175.642 89.7271C175.687 90.2511 175.738 90.6898 175.795 91.043C175.852 91.3962 175.915 91.6924 175.983 91.9316V92H172.036V91.9316C172.104 91.6924 172.167 91.3962 172.224 91.043C172.292 90.6898 172.343 90.2511 172.377 89.7271C172.423 89.203 172.457 88.582 172.48 87.8643C172.514 87.1351 172.531 86.2863 172.531 85.3179V81.1821ZM172.172 69.3218C172.172 69.0711 172.218 68.8376 172.309 68.6211C172.412 68.3932 172.543 68.1995 172.702 68.04C172.862 67.8691 173.05 67.7381 173.266 67.647C173.494 67.5444 173.739 67.4932 174.001 67.4932C174.263 67.4932 174.502 67.5444 174.719 67.647C174.947 67.7381 175.14 67.8691 175.3 68.04C175.471 68.1995 175.602 68.3932 175.693 68.6211C175.795 68.8376 175.847 69.0711 175.847 69.3218C175.847 69.8459 175.67 70.2845 175.317 70.6377C174.964 70.9909 174.525 71.1675 174.001 71.1675C173.739 71.1675 173.494 71.1219 173.266 71.0308C173.05 70.9282 172.862 70.7972 172.702 70.6377C172.543 70.4668 172.412 70.2731 172.309 70.0566C172.218 69.8288 172.172 69.5838 172.172 69.3218ZM192.629 80.4814C192.629 78.9775 192.327 77.8724 191.723 77.166C191.119 76.4596 190.31 76.1064 189.296 76.1064C188.932 76.1064 188.522 76.1862 188.066 76.3457C187.61 76.4938 187.143 76.6989 186.665 76.9609C186.186 77.2116 185.708 77.5078 185.229 77.8496C184.75 78.1914 184.3 78.556 183.879 78.9434L183.845 81.1821V85.3179C183.845 86.2863 183.856 87.1351 183.879 87.8643C183.902 88.582 183.936 89.203 183.981 89.7271C184.027 90.2511 184.078 90.6898 184.135 91.043C184.192 91.3962 184.255 91.6924 184.323 91.9316V92H180.375V91.9316C180.444 91.6924 180.507 91.3962 180.563 91.043C180.632 90.6898 180.683 90.2511 180.717 89.7271C180.763 89.203 180.797 88.582 180.82 87.8643C180.854 87.1351 180.871 86.2863 180.871 85.3179V81.1821C180.871 80.2137 180.854 79.3706 180.82 78.6528C180.797 77.9237 180.763 77.297 180.717 76.7729C180.683 76.2489 180.632 75.8102 180.563 75.457C180.507 75.1038 180.444 74.8076 180.375 74.5684V74.5H184.323V74.5684C184.232 74.8532 184.158 75.2178 184.101 75.6621C184.056 76.0951 184.004 76.6647 183.947 77.3711C184.414 76.9837 184.916 76.5964 185.451 76.209C185.998 75.8216 186.562 75.4798 187.143 75.1836C187.724 74.876 188.317 74.631 188.92 74.4487C189.524 74.255 190.117 74.1582 190.698 74.1582C191.586 74.1582 192.338 74.312 192.954 74.6196C193.58 74.9272 194.087 75.3317 194.475 75.833C194.873 76.3343 195.158 76.9097 195.329 77.5591C195.511 78.1971 195.603 78.8465 195.603 79.5073V85.3179C195.603 86.2863 195.614 87.1351 195.637 87.8643C195.66 88.582 195.694 89.203 195.739 89.7271C195.785 90.2511 195.836 90.6898 195.893 91.043C195.95 91.3962 196.013 91.6924 196.081 91.9316V92H192.133V91.9316C192.202 91.6924 192.264 91.3962 192.321 91.043C192.39 90.6898 192.441 90.2511 192.475 89.7271C192.521 89.203 192.555 88.582 192.578 87.8643C192.612 87.1351 192.629 86.2863 192.629 85.3179V80.4814ZM208.42 92.3076C207.155 92.3076 205.97 92.1082 204.865 91.7095C203.76 91.3107 202.797 90.7297 201.977 89.9663C201.157 89.1916 200.507 88.2402 200.029 87.1123C199.562 85.973 199.328 84.6742 199.328 83.2158C199.328 81.9284 199.545 80.7378 199.978 79.644C200.41 78.5389 201.009 77.5819 201.772 76.7729C202.535 75.964 203.424 75.3317 204.438 74.876C205.463 74.4202 206.569 74.1924 207.753 74.1924C208.927 74.1924 210.015 74.3975 211.018 74.8076C212.02 75.2064 212.886 75.7931 213.615 76.5679C214.356 77.3312 214.937 78.2826 215.358 79.4219C215.791 80.5498 216.025 81.8372 216.059 83.2842C214.772 83.2614 213.484 83.2443 212.197 83.2329C210.909 83.2215 209.571 83.2158 208.181 83.2158C207.189 83.2158 206.221 83.2215 205.275 83.2329C204.341 83.2443 203.498 83.2614 202.746 83.2842C202.814 84.4691 202.997 85.54 203.293 86.4971C203.601 87.4541 204.016 88.2744 204.541 88.958C205.076 89.6302 205.72 90.1486 206.472 90.5132C207.235 90.8778 208.095 91.0601 209.052 91.0601C209.713 91.0601 210.334 90.986 210.915 90.8379C211.507 90.6784 212.043 90.4619 212.521 90.1885C213 89.915 213.427 89.596 213.803 89.2314C214.179 88.8555 214.498 88.451 214.76 88.0181L214.965 88.1206L213.701 91.1626C213.085 91.4816 212.351 91.755 211.496 91.9829C210.642 92.1994 209.616 92.3076 208.42 92.3076ZM206.147 81.8828C207.286 81.8828 208.426 81.8828 209.565 81.8828C210.716 81.8714 211.758 81.8486 212.692 81.8145C212.59 80.8232 212.396 79.9346 212.111 79.1484C211.826 78.3623 211.462 77.6958 211.018 77.1489C210.573 76.6021 210.049 76.1805 209.445 75.8843C208.841 75.5881 208.175 75.4399 207.446 75.4399C206.785 75.4399 206.175 75.5881 205.617 75.8843C205.07 76.1691 204.592 76.585 204.182 77.1318C203.771 77.6787 203.441 78.3509 203.19 79.1484C202.94 79.9346 202.792 80.8346 202.746 81.8486C203.259 81.8714 203.8 81.8828 204.37 81.8828C204.939 81.8828 205.532 81.8828 206.147 81.8828ZM225.92 90.9917C226.262 90.9917 226.598 90.929 226.928 90.8037C227.27 90.6784 227.595 90.5075 227.902 90.291C228.221 90.0745 228.523 89.8296 228.808 89.5562C229.104 89.2713 229.378 88.9751 229.628 88.6675L229.799 88.7529L228.688 91.5044C228.552 91.5728 228.381 91.6582 228.176 91.7607C227.982 91.8519 227.743 91.9373 227.458 92.0171C227.185 92.1082 226.86 92.1823 226.484 92.2393C226.108 92.3076 225.664 92.3418 225.151 92.3418C223.624 92.3418 222.434 91.9316 221.579 91.1113C220.736 90.2796 220.314 88.9865 220.314 87.2319V75.833L217.443 75.9355V74.4316C217.797 74.4544 218.218 74.4715 218.708 74.4829C219.198 74.4943 219.733 74.5 220.314 74.5C220.303 73.6911 220.28 72.979 220.246 72.3638C220.223 71.7371 220.189 71.196 220.144 70.7402C220.109 70.2731 220.064 69.88 220.007 69.561C219.95 69.242 219.893 68.9743 219.836 68.7578V68.6895H223.784V68.7578C223.715 68.9743 223.653 69.242 223.596 69.561C223.539 69.88 223.487 70.2674 223.442 70.7231C223.408 71.1789 223.374 71.7201 223.339 72.3467C223.317 72.9619 223.299 73.6797 223.288 74.5C224.006 74.4886 224.707 74.4772 225.39 74.4658C226.085 74.443 226.712 74.4202 227.27 74.3975C227.84 74.3633 228.318 74.3348 228.706 74.312C229.104 74.2778 229.366 74.2493 229.492 74.2266L229.184 75.9697C228.603 75.9583 227.993 75.9412 227.355 75.9185C226.809 75.8957 226.182 75.8786 225.476 75.8672C224.769 75.8558 224.04 75.8444 223.288 75.833V87.5908C223.288 88.2972 223.362 88.8726 223.51 89.3169C223.67 89.7498 223.869 90.0916 224.108 90.3423C224.359 90.5929 224.638 90.7638 224.946 90.855C225.265 90.9461 225.59 90.9917 225.92 90.9917ZM242.258 91.9316C242.383 91.7493 242.526 91.4816 242.685 91.1284C242.845 90.7638 242.97 90.3081 243.061 89.7612C243.186 88.9637 243.323 88.0693 243.471 87.0781C243.631 86.0755 243.79 85.0273 243.95 83.9336C244.121 82.8398 244.286 81.7233 244.445 80.584C244.616 79.4333 244.776 78.3053 244.924 77.2002C245.083 76.0837 245.231 75.0127 245.368 73.9873C245.516 72.9505 245.647 72.0049 245.761 71.1504C245.875 70.2959 245.966 69.5553 246.035 68.9287C246.114 68.2907 246.171 67.8122 246.206 67.4932H248.376L259.125 87.5908L269.79 67.4932H271.413L274.216 87.7959C274.296 88.4339 274.381 88.9808 274.472 89.4365C274.563 89.8923 274.654 90.2853 274.746 90.6157C274.837 90.9347 274.922 91.2025 275.002 91.4189C275.093 91.624 275.179 91.7949 275.258 91.9316V92H270.952V91.9316C271.009 91.8063 271.06 91.6012 271.105 91.3164C271.162 91.0316 271.191 90.6898 271.191 90.291C271.191 90.1429 271.185 89.9948 271.174 89.8467C271.162 89.6872 271.145 89.5163 271.123 89.334L268.952 72.9619L258.869 91.9316L257.69 91.7949L247.539 72.791C247.14 75.4912 246.792 77.9863 246.496 80.2764C246.371 81.2562 246.245 82.236 246.12 83.2158C245.995 84.1842 245.881 85.09 245.778 85.9331C245.687 86.7762 245.613 87.5225 245.556 88.1719C245.499 88.8099 245.471 89.2827 245.471 89.5903C245.471 89.9777 245.482 90.3195 245.505 90.6157C245.528 90.9119 245.55 91.1626 245.573 91.3677C245.607 91.6069 245.642 91.8177 245.676 92H242.258V91.9316ZM277.873 83.2158C277.873 81.9284 278.112 80.7378 278.591 79.644C279.069 78.5389 279.724 77.5819 280.556 76.7729C281.399 75.964 282.39 75.3317 283.53 74.876C284.669 74.4202 285.894 74.1924 287.204 74.1924C288.492 74.1924 289.699 74.4089 290.827 74.8418C291.966 75.2633 292.958 75.8672 293.801 76.6533C294.644 77.4395 295.305 78.3965 295.783 79.5244C296.273 80.6523 296.518 81.917 296.518 83.3184C296.518 84.4919 296.313 85.6198 295.903 86.7021C295.493 87.7845 294.889 88.7415 294.091 89.5732C293.294 90.4049 292.314 91.0715 291.152 91.5728C290.001 92.0627 288.674 92.3076 287.17 92.3076C285.894 92.3076 284.692 92.0968 283.564 91.6753C282.436 91.2537 281.451 90.6499 280.607 89.8638C279.764 89.0776 279.098 88.1263 278.608 87.0098C278.118 85.8818 277.873 84.6172 277.873 83.2158ZM287.563 91.0601C288.372 91.0601 289.112 90.9006 289.785 90.5815C290.468 90.2625 291.055 89.8011 291.545 89.1973C292.035 88.5934 292.417 87.8586 292.69 86.9927C292.963 86.1268 293.1 85.147 293.1 84.0532C293.1 82.8228 292.969 81.6834 292.707 80.6353C292.445 79.5757 292.052 78.6642 291.528 77.9009C291.015 77.1261 290.366 76.5223 289.58 76.0894C288.793 75.6564 287.876 75.4399 286.828 75.4399C286.019 75.4399 285.279 75.5994 284.606 75.9185C283.934 76.2261 283.347 76.6761 282.846 77.2686C282.356 77.861 281.975 78.5902 281.701 79.4561C281.428 80.3105 281.291 81.2847 281.291 82.3784C281.291 83.6089 281.422 84.7539 281.684 85.8135C281.958 86.873 282.356 87.7959 282.88 88.582C283.404 89.3568 284.054 89.9663 284.829 90.4106C285.615 90.8436 286.526 91.0601 287.563 91.0601ZM302.106 90.667H307.182C308.071 90.667 308.891 90.6214 309.643 90.5303C310.395 90.4277 311.044 90.3138 311.591 90.1885C312.229 90.0518 312.81 89.8866 313.334 89.6929L312.565 92.1367C312.429 92.1253 312.189 92.1082 311.848 92.0854C311.517 92.0741 311.164 92.057 310.788 92.0342C310.424 92.0228 310.076 92.0114 309.746 92C309.415 92 309.193 92 309.079 92H298.005V91.5728L309.045 75.833H305.473C304.528 75.833 303.656 75.8843 302.858 75.9868C302.072 76.0894 301.389 76.2033 300.808 76.3286C300.124 76.4653 299.509 76.6248 298.962 76.8071L300.073 74.3633C300.209 74.3861 300.443 74.4032 300.773 74.4146C301.115 74.4259 301.474 74.443 301.85 74.4658C302.226 74.4772 302.574 74.4886 302.893 74.5C303.223 74.5 303.451 74.5 303.576 74.5H313.198V74.8076L302.106 90.667ZM315.3 86.9585C315.3 86.0584 315.482 85.278 315.847 84.6172C316.223 83.9564 316.718 83.3924 317.333 82.9253C317.949 82.4582 318.649 82.0822 319.436 81.7974C320.222 81.5011 321.036 81.2733 321.879 81.1138C322.722 80.9429 323.554 80.8289 324.375 80.772C325.195 80.7036 325.947 80.6637 326.63 80.6523V79.7808C326.63 79.0288 326.534 78.3794 326.34 77.8325C326.146 77.2856 325.873 76.8356 325.52 76.4824C325.166 76.1178 324.739 75.8501 324.238 75.6792C323.748 75.4969 323.207 75.4058 322.614 75.4058C322.204 75.4058 321.8 75.4399 321.401 75.5083C321.002 75.5767 320.586 75.6906 320.153 75.8501C319.732 76.0096 319.282 76.2261 318.803 76.4995C318.336 76.7729 317.829 77.1204 317.282 77.542L317.111 77.4395L318.273 75.0298C318.649 74.8589 319.02 74.7222 319.384 74.6196C319.749 74.5057 320.119 74.4146 320.495 74.3462C320.871 74.2778 321.253 74.2323 321.64 74.2095C322.039 74.1753 322.455 74.1582 322.888 74.1582C324.084 74.1582 325.104 74.3063 325.947 74.6025C326.801 74.8874 327.496 75.2861 328.032 75.7988C328.579 76.3001 328.977 76.8926 329.228 77.5762C329.479 78.2484 329.604 78.9718 329.604 79.7466V85.3179C329.604 86.2863 329.615 87.1351 329.638 87.8643C329.672 88.582 329.707 89.203 329.741 89.7271C329.786 90.2511 329.838 90.6898 329.895 91.043C329.963 91.3962 330.031 91.6924 330.1 91.9316V92H326.323V91.9316C326.38 91.7493 326.42 91.5443 326.442 91.3164C326.477 91.0885 326.505 90.8151 326.528 90.4961C326.289 90.7012 326.004 90.9119 325.673 91.1284C325.354 91.3449 324.984 91.5443 324.562 91.7266C324.152 91.8975 323.691 92.0342 323.178 92.1367C322.677 92.2507 322.124 92.3076 321.521 92.3076C319.538 92.3076 318.006 91.8462 316.923 90.9233C315.841 89.9891 315.3 88.6675 315.3 86.9585ZM326.63 81.9854C325.594 81.9967 324.597 82.0594 323.64 82.1733C322.683 82.2759 321.834 82.498 321.093 82.8398C320.364 83.1816 319.777 83.6715 319.333 84.3096C318.9 84.9362 318.684 85.7736 318.684 86.8218C318.684 88.1662 319.02 89.1916 319.692 89.8979C320.364 90.6043 321.293 90.9575 322.478 90.9575C323.024 90.9575 323.52 90.8835 323.964 90.7354C324.42 90.5758 324.819 90.3822 325.161 90.1543C325.514 89.915 325.81 89.6587 326.049 89.3853C326.289 89.1004 326.471 88.827 326.596 88.5649C326.619 88.132 326.63 87.6535 326.63 87.1294C326.63 86.5939 326.63 85.9901 326.63 85.3179V81.9854ZM334.885 81.1821C334.885 80.2137 334.868 79.3706 334.833 78.6528C334.811 77.9237 334.777 77.297 334.731 76.7729C334.697 76.2489 334.646 75.8102 334.577 75.457C334.52 75.1038 334.458 74.8076 334.389 74.5684V74.5H338.337V74.5684C338.269 74.8076 338.206 75.1038 338.149 75.457C338.092 75.8102 338.041 76.2489 337.995 76.7729C337.95 77.297 337.915 77.9237 337.893 78.6528C337.87 79.3706 337.858 80.2137 337.858 81.1821V85.3179C337.858 86.2863 337.87 87.1351 337.893 87.8643C337.915 88.582 337.95 89.203 337.995 89.7271C338.041 90.2511 338.092 90.6898 338.149 91.043C338.206 91.3962 338.269 91.6924 338.337 91.9316V92H334.389V91.9316C334.458 91.6924 334.52 91.3962 334.577 91.043C334.646 90.6898 334.697 90.2511 334.731 89.7271C334.777 89.203 334.811 88.582 334.833 87.8643C334.868 87.1351 334.885 86.2863 334.885 85.3179V81.1821ZM334.526 69.3218C334.526 69.0711 334.571 68.8376 334.663 68.6211C334.765 68.3932 334.896 68.1995 335.056 68.04C335.215 67.8691 335.403 67.7381 335.62 67.647C335.847 67.5444 336.092 67.4932 336.354 67.4932C336.617 67.4932 336.856 67.5444 337.072 67.647C337.3 67.7381 337.494 67.8691 337.653 68.04C337.824 68.1995 337.955 68.3932 338.046 68.6211C338.149 68.8376 338.2 69.0711 338.2 69.3218C338.2 69.8459 338.024 70.2845 337.67 70.6377C337.317 70.9909 336.879 71.1675 336.354 71.1675C336.092 71.1675 335.847 71.1219 335.62 71.0308C335.403 70.9282 335.215 70.7972 335.056 70.6377C334.896 70.4668 334.765 70.2731 334.663 70.0566C334.571 69.8288 334.526 69.5838 334.526 69.3218ZM343.225 73.1328C343.225 72.1644 343.208 71.3213 343.173 70.6035C343.151 69.8743 343.116 69.2477 343.071 68.7236C343.037 68.1995 342.985 67.7609 342.917 67.4077C342.86 67.0545 342.797 66.7583 342.729 66.519V66.4507H346.677V66.519C346.608 66.7583 346.546 67.0545 346.489 67.4077C346.432 67.7609 346.381 68.1995 346.335 68.7236C346.289 69.2477 346.255 69.8743 346.232 70.6035C346.21 71.3213 346.198 72.1644 346.198 73.1328V81.6436L351.787 76.6362C352.766 75.7817 353.256 75.0697 353.256 74.5H357.221V74.5684C356.925 74.6595 356.64 74.7791 356.367 74.9272C356.105 75.064 355.837 75.2292 355.563 75.4229C355.301 75.6165 355.022 75.8387 354.726 76.0894C354.441 76.3286 354.128 76.6021 353.786 76.9097L348.779 81.4727L355.649 89.5903C355.854 89.841 356.076 90.0973 356.315 90.3594C356.555 90.61 356.794 90.8436 357.033 91.0601C357.272 91.2765 357.506 91.4645 357.734 91.624C357.962 91.7835 358.173 91.8861 358.366 91.9316V92H353.41C353.41 91.7038 353.33 91.3962 353.171 91.0771C353.023 90.7581 352.749 90.3537 352.351 89.8638L346.198 82.5493V85.3179C346.198 86.2863 346.21 87.1351 346.232 87.8643C346.255 88.582 346.289 89.203 346.335 89.7271C346.381 90.2511 346.432 90.6898 346.489 91.043C346.546 91.3962 346.608 91.6924 346.677 91.9316V92H342.729V91.9316C342.797 91.6924 342.86 91.3962 342.917 91.043C342.985 90.6898 343.037 90.2511 343.071 89.7271C343.116 89.203 343.151 88.582 343.173 87.8643C343.208 87.1351 343.225 86.2863 343.225 85.3179V73.1328ZM387.504 92V91.9316C387.527 91.8747 387.544 91.7892 387.556 91.6753C387.567 91.5614 387.573 91.4588 387.573 91.3677C387.573 91.0145 387.521 90.6271 387.419 90.2056C387.328 89.7726 387.146 89.2371 386.872 88.5991L384.804 83.9507C384.166 83.9279 383.317 83.9165 382.258 83.9165C381.198 83.9165 380.053 83.9165 378.823 83.9165C377.923 83.9165 377.051 83.9165 376.208 83.9165C375.376 83.9165 374.624 83.9279 373.952 83.9507L371.987 88.4624C371.816 88.884 371.634 89.3454 371.44 89.8467C371.246 90.348 371.149 90.855 371.149 91.3677C371.149 91.5158 371.161 91.6411 371.184 91.7437C371.206 91.8348 371.229 91.8975 371.252 91.9316V92H367.766V91.9316C367.971 91.7152 368.227 91.3335 368.535 90.7866C368.842 90.2284 369.178 89.5334 369.543 88.7017L379.335 66.9805H380.703L389.982 87.8643C390.199 88.3542 390.421 88.8327 390.649 89.2998C390.888 89.7555 391.11 90.1657 391.315 90.5303C391.521 90.8949 391.703 91.2025 391.862 91.4531C392.022 91.7038 392.13 91.8633 392.187 91.9316V92H387.504ZM376.43 82.4468C377.091 82.4468 377.769 82.4468 378.464 82.4468C379.159 82.4354 379.837 82.4297 380.498 82.4297C381.17 82.4183 381.813 82.4126 382.429 82.4126C383.044 82.4012 383.602 82.3898 384.104 82.3784L379.301 71.5264L374.584 82.4468H376.43ZM402.219 77.9351L401.979 77.9692C401.9 77.7072 401.769 77.4281 401.586 77.1318C401.416 76.8356 401.188 76.5622 400.903 76.3115C400.629 76.0609 400.293 75.8558 399.895 75.6963C399.507 75.5254 399.057 75.4399 398.544 75.4399C398.191 75.4399 397.855 75.4912 397.536 75.5938C397.229 75.6963 396.955 75.8501 396.716 76.0552C396.488 76.2489 396.306 76.4938 396.169 76.79C396.032 77.0863 395.964 77.4338 395.964 77.8325C395.964 78.3908 396.135 78.9263 396.477 79.439C396.83 79.9403 397.268 80.4416 397.792 80.9429C398.317 81.4328 398.881 81.9284 399.484 82.4297C400.1 82.931 400.669 83.4551 401.193 84.002C401.717 84.5488 402.15 85.1356 402.492 85.7622C402.845 86.3774 403.022 87.0439 403.022 87.7617C403.022 88.3428 402.919 88.9124 402.714 89.4707C402.509 90.0176 402.19 90.5075 401.757 90.9404C401.336 91.3734 400.789 91.7266 400.117 92C399.456 92.262 398.664 92.3931 397.741 92.3931C397.194 92.3931 396.682 92.3418 396.203 92.2393C395.736 92.1367 395.303 92.0114 394.904 91.8633C394.517 91.7038 394.164 91.5329 393.845 91.3506C393.537 91.1569 393.264 90.9746 393.024 90.8037L393.195 87.5566H393.469C393.583 88.0921 393.754 88.582 393.981 89.0264C394.209 89.4707 394.488 89.8524 394.819 90.1714C395.161 90.479 395.548 90.724 395.981 90.9062C396.414 91.0771 396.887 91.1626 397.399 91.1626C398.243 91.1626 398.909 90.929 399.399 90.4619C399.9 89.9948 400.151 89.3853 400.151 88.6333C400.151 88.0295 399.98 87.4769 399.638 86.9756C399.308 86.4629 398.886 85.973 398.374 85.5059C397.861 85.0387 397.308 84.5716 396.716 84.1045C396.135 83.6374 395.588 83.1418 395.075 82.6177C394.562 82.0822 394.135 81.5011 393.793 80.8745C393.463 80.2365 393.298 79.513 393.298 78.7041C393.298 78.0433 393.417 77.4395 393.657 76.8926C393.907 76.3343 394.249 75.8615 394.682 75.4741C395.126 75.0754 395.651 74.7677 396.254 74.5513C396.858 74.3348 397.519 74.2266 398.237 74.2266C399.182 74.2266 399.969 74.3291 400.595 74.5342C401.233 74.7279 401.717 74.9159 402.048 75.0981L402.219 77.9351ZM405.534 86.9585C405.534 86.0584 405.716 85.278 406.081 84.6172C406.457 83.9564 406.953 83.3924 407.568 82.9253C408.183 82.4582 408.884 82.0822 409.67 81.7974C410.456 81.5011 411.271 81.2733 412.114 81.1138C412.957 80.9429 413.789 80.8289 414.609 80.772C415.429 80.7036 416.181 80.6637 416.865 80.6523V79.7808C416.865 79.0288 416.768 78.3794 416.574 77.8325C416.381 77.2856 416.107 76.8356 415.754 76.4824C415.401 76.1178 414.973 75.8501 414.472 75.6792C413.982 75.4969 413.441 75.4058 412.849 75.4058C412.438 75.4058 412.034 75.4399 411.635 75.5083C411.236 75.5767 410.821 75.6906 410.388 75.8501C409.966 76.0096 409.516 76.2261 409.038 76.4995C408.57 76.7729 408.063 77.1204 407.517 77.542L407.346 77.4395L408.508 75.0298C408.884 74.8589 409.254 74.7222 409.619 74.6196C409.983 74.5057 410.354 74.4146 410.729 74.3462C411.105 74.2778 411.487 74.2323 411.875 74.2095C412.273 74.1753 412.689 74.1582 413.122 74.1582C414.318 74.1582 415.338 74.3063 416.181 74.6025C417.036 74.8874 417.731 75.2861 418.266 75.7988C418.813 76.3001 419.212 76.8926 419.462 77.5762C419.713 78.2484 419.838 78.9718 419.838 79.7466V85.3179C419.838 86.2863 419.85 87.1351 419.873 87.8643C419.907 88.582 419.941 89.203 419.975 89.7271C420.021 90.2511 420.072 90.6898 420.129 91.043C420.197 91.3962 420.266 91.6924 420.334 91.9316V92H416.557V91.9316C416.614 91.7493 416.654 91.5443 416.677 91.3164C416.711 91.0885 416.739 90.8151 416.762 90.4961C416.523 90.7012 416.238 90.9119 415.908 91.1284C415.589 91.3449 415.218 91.5443 414.797 91.7266C414.387 91.8975 413.925 92.0342 413.413 92.1367C412.911 92.2507 412.359 92.3076 411.755 92.3076C409.772 92.3076 408.24 91.8462 407.158 90.9233C406.075 89.9891 405.534 88.6675 405.534 86.9585ZM416.865 81.9854C415.828 81.9967 414.831 82.0594 413.874 82.1733C412.917 82.2759 412.068 82.498 411.328 82.8398C410.598 83.1816 410.012 83.6715 409.567 84.3096C409.134 84.9362 408.918 85.7736 408.918 86.8218C408.918 88.1662 409.254 89.1916 409.926 89.8979C410.598 90.6043 411.527 90.9575 412.712 90.9575C413.259 90.9575 413.754 90.8835 414.199 90.7354C414.654 90.5758 415.053 90.3822 415.395 90.1543C415.748 89.915 416.044 89.6587 416.284 89.3853C416.523 89.1004 416.705 88.827 416.831 88.5649C416.853 88.132 416.865 87.6535 416.865 87.1294C416.865 86.5939 416.865 85.9901 416.865 85.3179V81.9854ZM423.786 84.1899V81.7461H435.339V84.1899H423.786Z" fill="#E5DDC5"/>
</svg>
